<?xml version="1.0" encoding="UTF-8"?>
<!DOCTYPE svg PUBLIC "-//W3C//DTD SVG 1.1//EN" "http://www.w3.org/Graphics/SVG/1.1/DTD/svg11.dtd">
<svg xmlns="http://www.w3.org/2000/svg" version="1.1" width="180px" height="180px" style="shape-rendering:geometricPrecision; text-rendering:geometricPrecision; image-rendering:optimizeQuality; fill-rule:evenodd; clip-rule:evenodd" xmlns:xlink="http://www.w3.org/1999/xlink">
<g><path style="opacity:1" fill="#f9ece6" d="M 75.5,-0.5 C 84.8333,-0.5 94.1667,-0.5 103.5,-0.5C 120.193,2.84355 135.193,9.84355 148.5,20.5C 148.5,21.1667 148.833,21.5 149.5,21.5C 151.833,24.5 154.5,27.1667 157.5,29.5C 157.5,30.1667 157.833,30.5 158.5,30.5C 159.864,32.1911 161.197,33.8577 162.5,35.5C 162.5,36.1667 162.833,36.5 163.5,36.5C 169.863,46.8921 174.863,57.8921 178.5,69.5C 178.205,71.7354 178.539,73.7354 179.5,75.5C 179.5,84.8333 179.5,94.1667 179.5,103.5C 178.539,105.265 178.205,107.265 178.5,109.5C 177.566,110.568 177.232,111.901 177.5,113.5C 176.596,114.209 176.263,115.209 176.5,116.5C 175.596,117.209 175.263,118.209 175.5,119.5C 174.596,120.209 174.263,121.209 174.5,122.5C 170.782,129.595 166.782,136.595 162.5,143.5C 161.662,143.842 161.328,144.508 161.5,145.5C 160.833,145.5 160.5,145.833 160.5,146.5C 159.833,146.5 159.5,146.833 159.5,147.5C 158.833,147.5 158.5,147.833 158.5,148.5C 157.833,148.5 157.5,148.833 157.5,149.5C 154.5,151.833 151.833,154.5 149.5,157.5C 148.833,157.5 148.5,157.833 148.5,158.5C 147.833,158.5 147.5,158.833 147.5,159.5C 146.833,159.5 146.5,159.833 146.5,160.5C 145.833,160.5 145.5,160.833 145.5,161.5C 144.508,161.328 143.842,161.662 143.5,162.5C 136.595,166.782 129.595,170.782 122.5,174.5C 121.209,174.263 120.209,174.596 119.5,175.5C 118.209,175.263 117.209,175.596 116.5,176.5C 115.209,176.263 114.209,176.596 113.5,177.5C 111.901,177.232 110.568,177.566 109.5,178.5C 107.265,178.205 105.265,178.539 103.5,179.5C 94.1667,179.5 84.8333,179.5 75.5,179.5C 73.7354,178.539 71.7354,178.205 69.5,178.5C 55.0117,174.756 42.0117,168.089 30.5,158.5C 30.5,157.833 30.1667,157.5 29.5,157.5C 27.1667,154.5 24.5,151.833 21.5,149.5C 21.5,148.833 21.1667,148.5 20.5,148.5C 11.9875,137.995 5.65416,126.328 1.5,113.5C 1.76781,111.901 1.43448,110.568 0.5,109.5C 0.794717,107.265 0.461384,105.265 -0.5,103.5C -0.5,94.1667 -0.5,84.8333 -0.5,75.5C 0.461384,73.7354 0.794717,71.7354 0.5,69.5C 4.24425,55.0117 10.9109,42.0117 20.5,30.5C 21.1667,30.5 21.5,30.1667 21.5,29.5C 24.5,27.1667 27.1667,24.5 29.5,21.5C 30.1667,21.5 30.5,21.1667 30.5,20.5C 32.1911,19.1363 33.8577,17.803 35.5,16.5C 36.1667,16.5 36.5,16.1667 36.5,15.5C 48.5032,7.66274 61.5032,2.32941 75.5,-0.5 Z"/></g>
<g><path style="opacity:1" fill="#fdf2ab" d="M 36.5,15.5 C 35.8333,15.5 35.5,15.8333 35.5,16.5C 33.0248,16.2533 33.0248,15.5866 35.5,14.5C 36.1067,14.6236 36.44,14.9569 36.5,15.5 Z"/></g>
<g><path style="opacity:1" fill="#f9faf9" d="M 30.5,20.5 C 29.8333,20.5 29.5,20.8333 29.5,21.5C 27.0248,21.2533 27.0248,20.5866 29.5,19.5C 30.1067,19.6236 30.44,19.9569 30.5,20.5 Z"/></g>
<g><path style="opacity:1" fill="#fcf9e1" d="M 148.5,20.5 C 149.497,19.2875 150.497,19.4542 151.5,21C 150.906,21.4643 150.239,21.631 149.5,21.5C 148.833,21.5 148.5,21.1667 148.5,20.5 Z"/></g>
<g><path style="opacity:1" fill="#fdf9c3" d="M 21.5,29.5 C 20.8333,29.5 20.5,29.8333 20.5,30.5C 19.2875,29.5029 19.4542,28.5029 21,27.5C 21.4643,28.0944 21.631,28.7611 21.5,29.5 Z"/></g>
<g><path style="opacity:1" fill="#fcf9df" d="M 158.5,30.5 C 157.833,30.5 157.5,30.1667 157.5,29.5C 157.747,27.0248 158.413,27.0248 159.5,29.5C 159.376,30.1067 159.043,30.44 158.5,30.5 Z"/></g>
<g><path style="opacity:1" fill="#ffbfb1" d="M 163.5,36.5 C 162.833,36.5 162.5,36.1667 162.5,35.5C 162.747,33.0248 163.413,33.0248 164.5,35.5C 164.376,36.1067 164.043,36.44 163.5,36.5 Z"/></g>
<g><path style="opacity:1" fill="#e17b21" d="M 51.5,58.5 C 66.9352,57.4674 78.7685,63.4674 87,76.5C 92.5524,88.4487 99.7191,99.282 108.5,109C 124.162,116.25 135.662,112.084 143,96.5C 145.097,79.6049 137.764,69.9383 121,67.5C 116.385,67.057 112.218,68.2236 108.5,71C 104.956,74.375 101.623,77.875 98.5,81.5C 96.8975,79.292 95.5642,76.9587 94.5,74.5C 103.602,60.121 116.269,55.621 132.5,61C 145.021,66.5369 151.687,76.2035 152.5,90C 150.468,109.865 139.468,120.365 119.5,121.5C 109.359,120.344 101.192,115.678 95,107.5C 89.6005,99.0917 84.6005,90.425 80,81.5C 70.2152,66.2189 57.7152,63.3856 42.5,73C 36.099,79.2099 33.9323,86.7099 36,95.5C 40.7897,108.82 50.2897,114.32 64.5,112C 71.2785,108.888 76.4452,104.055 80,97.5C 83.7348,100.581 84.7348,104.248 83,108.5C 67.3264,125.064 50.9931,125.731 34,110.5C 20.1899,86.469 26.0232,69.1357 51.5,58.5 Z"/></g>
<g><path style="opacity:1" fill="#fbd3c0" d="M -0.5,65.5 C 0.434475,66.5676 0.767809,67.901 0.5,69.5C 0.166667,69.5 -0.166667,69.5 -0.5,69.5C -0.5,68.1667 -0.5,66.8333 -0.5,65.5 Z"/></g>
<g><path style="opacity:1" fill="#fbd3c0" d="M 179.5,65.5 C 179.5,66.8333 179.5,68.1667 179.5,69.5C 179.167,69.5 178.833,69.5 178.5,69.5C 178.232,67.901 178.566,66.5676 179.5,65.5 Z"/></g>
<g><path style="opacity:1" fill="#fbe7d5" d="M -0.5,109.5 C -0.166667,109.5 0.166667,109.5 0.5,109.5C 0.5,110.833 0.5,112.167 0.5,113.5C 0.166667,113.5 -0.166667,113.5 -0.5,113.5C -0.5,112.167 -0.5,110.833 -0.5,109.5 Z"/></g>
<g><path style="opacity:1" fill="#fbe7d5" d="M 178.5,109.5 C 178.833,109.5 179.167,109.5 179.5,109.5C 179.5,110.833 179.5,112.167 179.5,113.5C 179.167,113.5 178.833,113.5 178.5,113.5C 178.5,112.167 178.5,110.833 178.5,109.5 Z"/></g>
<g><path style="opacity:1" fill="#fae0e0" d="M 0.5,113.5 C 0.833333,113.5 1.16667,113.5 1.5,113.5C 1.16667,117.5 0.833333,117.5 0.5,113.5 Z"/></g>
<g><path style="opacity:1" fill="#fae0e0" d="M 177.5,113.5 C 177.833,113.5 178.167,113.5 178.5,113.5C 178.737,114.791 178.404,115.791 177.5,116.5C 177.5,115.5 177.5,114.5 177.5,113.5 Z"/></g>
<g><path style="opacity:1" fill="#f9faf9" d="M 176.5,116.5 C 176.833,116.5 177.167,116.5 177.5,116.5C 177.737,117.791 177.404,118.791 176.5,119.5C 176.5,118.5 176.5,117.5 176.5,116.5 Z"/></g>
<g><path style="opacity:1" fill="#e4e4e4" d="M 175.5,119.5 C 175.833,119.5 176.167,119.5 176.5,119.5C 176.737,120.791 176.404,121.791 175.5,122.5C 175.5,121.5 175.5,120.5 175.5,119.5 Z"/></g>
<g><path style="opacity:1" fill="#f9faf9" d="M 174.5,122.5 C 174.833,122.5 175.167,122.5 175.5,122.5C 175.167,125.167 174.833,125.167 174.5,122.5 Z"/></g>
<g><path style="opacity:1" fill="#f9faf9" d="M 162.5,143.5 C 163.833,144.167 163.833,144.833 162.5,145.5C 162.5,144.833 162.5,144.167 162.5,143.5 Z"/></g>
<g><path style="opacity:1" fill="#f9faf9" d="M 161.5,145.5 C 161.833,145.5 162.167,145.5 162.5,145.5C 162.315,146.17 161.981,146.17 161.5,145.5 Z"/></g>
<g><path style="opacity:1" fill="#f9faf9" d="M 160.5,146.5 C 160.833,146.5 161.167,146.5 161.5,146.5C 161.315,147.17 160.981,147.17 160.5,146.5 Z"/></g>
<g><path style="opacity:1" fill="#f9d4d3" d="M 159.5,147.5 C 159.833,147.5 160.167,147.5 160.5,147.5C 160.315,148.17 159.981,148.17 159.5,147.5 Z"/></g>
<g><path style="opacity:1" fill="#f9faf9" d="M 20.5,148.5 C 21.1667,148.5 21.5,148.833 21.5,149.5C 21.2533,151.975 20.5866,151.975 19.5,149.5C 19.6236,148.893 19.9569,148.56 20.5,148.5 Z"/></g>
<g><path style="opacity:1" fill="#fcf9e1" d="M 158.5,148.5 C 158.833,148.5 159.167,148.5 159.5,148.5C 158.968,151.46 158.301,151.793 157.5,149.5C 158.167,149.5 158.5,149.167 158.5,148.5 Z"/></g>
<g><path style="opacity:1" fill="#f9faf9" d="M 149.5,157.5 C 151.793,158.301 151.46,158.968 148.5,159.5C 148.5,159.167 148.5,158.833 148.5,158.5C 149.167,158.5 149.5,158.167 149.5,157.5 Z"/></g>
<g><path style="opacity:1" fill="#fcf9df" d="M 29.5,157.5 C 30.1667,157.5 30.5,157.833 30.5,158.5C 29.5029,159.713 28.5029,159.546 27.5,158C 28.0944,157.536 28.7611,157.369 29.5,157.5 Z"/></g>
<g><path style="opacity:1" fill="#f9faf9" d="M 147.5,159.5 C 147.833,159.5 148.167,159.5 148.5,159.5C 148.315,160.17 147.981,160.17 147.5,159.5 Z"/></g>
<g><path style="opacity:1" fill="#f9faf9" d="M 146.5,160.5 C 146.833,160.5 147.167,160.5 147.5,160.5C 147.315,161.17 146.981,161.17 146.5,160.5 Z"/></g>
<g><path style="opacity:1" fill="#f9faf9" d="M 145.5,161.5 C 145.833,161.5 146.167,161.5 146.5,161.5C 146.315,162.17 145.981,162.17 145.5,161.5 Z"/></g>
<g><path style="opacity:1" fill="#f9faf9" d="M 143.5,162.5 C 144.167,162.5 144.833,162.5 145.5,162.5C 144.833,163.833 144.167,163.833 143.5,162.5 Z"/></g>
<g><path style="opacity:1" fill="#f9faf9" d="M 122.5,175.5 C 122.5,175.167 122.5,174.833 122.5,174.5C 125.167,174.833 125.167,175.167 122.5,175.5 Z"/></g>
<g><path style="opacity:1" fill="#f9faf9" d="M 119.5,176.5 C 119.5,176.167 119.5,175.833 119.5,175.5C 120.5,175.5 121.5,175.5 122.5,175.5C 121.791,176.404 120.791,176.737 119.5,176.5 Z"/></g>
<g><path style="opacity:1" fill="#f9faf9" d="M 116.5,177.5 C 116.5,177.167 116.5,176.833 116.5,176.5C 117.5,176.5 118.5,176.5 119.5,176.5C 118.791,177.404 117.791,177.737 116.5,177.5 Z"/></g>
<g><path style="opacity:1" fill="#fae0e0" d="M 113.5,178.5 C 113.5,178.167 113.5,177.833 113.5,177.5C 114.5,177.5 115.5,177.5 116.5,177.5C 115.791,178.404 114.791,178.737 113.5,178.5 Z"/></g>
<g><path style="opacity:1" fill="#fbd3c0" d="M 65.5,179.5 C 66.5676,178.566 67.901,178.232 69.5,178.5C 69.5,178.833 69.5,179.167 69.5,179.5C 68.1667,179.5 66.8333,179.5 65.5,179.5 Z"/></g>
<g><path style="opacity:1" fill="#fbe7d5" d="M 109.5,179.5 C 109.5,179.167 109.5,178.833 109.5,178.5C 110.833,178.5 112.167,178.5 113.5,178.5C 113.5,178.833 113.5,179.167 113.5,179.5C 112.167,179.5 110.833,179.5 109.5,179.5 Z"/></g>
</svg>
