<?xml version="1.0" encoding="UTF-8"?>
<!DOCTYPE svg PUBLIC "-//W3C//DTD SVG 1.1//EN" "http://www.w3.org/Graphics/SVG/1.1/DTD/svg11.dtd">
<svg xmlns="http://www.w3.org/2000/svg" version="1.1" width="64px" height="64px" style="shape-rendering:geometricPrecision; text-rendering:geometricPrecision; image-rendering:optimizeQuality; fill-rule:evenodd; clip-rule:evenodd" xmlns:xlink="http://www.w3.org/1999/xlink">
<g><path style="opacity:1" fill="#f9ece6" d="M 23.5,-0.5 C 28.8333,-0.5 34.1667,-0.5 39.5,-0.5C 51.1667,3.83333 59.1667,11.8333 63.5,23.5C 63.5,28.8333 63.5,34.1667 63.5,39.5C 59.1667,51.1667 51.1667,59.1667 39.5,63.5C 34.1667,63.5 28.8333,63.5 23.5,63.5C 11.8333,59.1667 3.83333,51.1667 -0.5,39.5C -0.5,34.1667 -0.5,28.8333 -0.5,23.5C 3.83333,11.8333 11.8333,3.83333 23.5,-0.5 Z"/></g>
<g><path style="opacity:1" fill="#e4842f" d="M 34.5,16.5 C 37.9983,16.5653 38.4983,17.8986 36,20.5C 34.3731,22.312 32.8731,22.4787 31.5,21C 32.3146,19.3566 33.3146,17.8566 34.5,16.5 Z"/></g>
<g><path style="opacity:1" fill="#e3842f" d="M 23.5,22.5 C 28.0115,23.5593 32.5115,23.5593 37,22.5C 39.4059,22.7029 41.4059,23.7029 43,25.5C 45.839,33.2922 44.339,40.1255 38.5,46C 34.4803,45.564 30.4803,45.7307 26.5,46.5C 24.6171,46.1243 23.1171,45.1243 22,43.5C 16.8418,35.8394 17.3418,28.8394 23.5,22.5 Z"/></g>
<g><path style="opacity:1" fill="#f9e8df" d="M 23.5,24.5 C 27.8438,25.5708 32.1771,25.5708 36.5,24.5C 38.374,24.3898 39.874,25.0564 41,26.5C 43.6135,33.0938 42.4469,38.9272 37.5,44C 24.726,46.8983 19.226,41.7316 21,28.5C 21.6622,27.0161 22.4955,25.6828 23.5,24.5 Z"/></g>
<g><path style="opacity:1" fill="#e2812a" d="M 28.5,31.5 C 30.9238,33.2276 31.0904,35.2276 29,37.5C 27.2002,35.6349 27.0336,33.6349 28.5,31.5 Z"/></g>
<g><path style="opacity:1" fill="#e2812a" d="M 33.5,31.5 C 35.9238,33.2276 36.0904,35.2276 34,37.5C 32.2002,35.6349 32.0336,33.6349 33.5,31.5 Z"/></g>
</svg>
