<?xml version="1.0" encoding="UTF-8"?>
<!DOCTYPE svg PUBLIC "-//W3C//DTD SVG 1.1//EN" "http://www.w3.org/Graphics/SVG/1.1/DTD/svg11.dtd">
<svg xmlns="http://www.w3.org/2000/svg" version="1.1" width="30px" height="30px" style="shape-rendering:geometricPrecision; text-rendering:geometricPrecision; image-rendering:optimizeQuality; fill-rule:evenodd; clip-rule:evenodd" xmlns:xlink="http://www.w3.org/1999/xlink">
<g><path style="opacity:1" fill="#de7b1f" d="M 6.5,6.5 C 7.55198,6.35055 8.55198,6.51722 9.5,7C 11.0175,8.68511 12.6841,10.1851 14.5,11.5C 16.3159,10.1851 17.9825,8.68511 19.5,7C 20.448,6.51722 21.448,6.35055 22.5,6.5C 22.6495,7.55198 22.4828,8.55198 22,9.5C 20.3149,11.0175 18.8149,12.6841 17.5,14.5C 18.8149,16.3159 20.3149,17.9825 22,19.5C 22.4828,20.448 22.6495,21.448 22.5,22.5C 21.448,22.6495 20.448,22.4828 19.5,22C 17.9825,20.3149 16.3159,18.8149 14.5,17.5C 12.6841,18.8149 11.0175,20.3149 9.5,22C 8.55198,22.4828 7.55198,22.6495 6.5,22.5C 6.35055,21.448 6.51722,20.448 7,19.5C 8.68511,17.9825 10.1851,16.3159 11.5,14.5C 10.1851,12.6841 8.68511,11.0175 7,9.5C 6.51722,8.55198 6.35055,7.55198 6.5,6.5 Z"/></g>
</svg>
