<?xml version="1.0" encoding="UTF-8"?>
<!DOCTYPE svg PUBLIC "-//W3C//DTD SVG 1.1//EN" "http://www.w3.org/Graphics/SVG/1.1/DTD/svg11.dtd">
<svg xmlns="http://www.w3.org/2000/svg" version="1.1" width="64px" height="64px" style="shape-rendering:geometricPrecision; text-rendering:geometricPrecision; image-rendering:optimizeQuality; fill-rule:evenodd; clip-rule:evenodd" xmlns:xlink="http://www.w3.org/1999/xlink">
<g><path style="opacity:1" fill="#f9faf9" d="M 17.5,-0.5 C 18.1667,-0.5 18.8333,-0.5 19.5,-0.5C 18.8333,0.833333 18.1667,0.833333 17.5,-0.5 Z"/></g>
<g><path style="opacity:1" fill="#f9ece5" d="M 23.5,-0.5 C 28.8333,-0.5 34.1667,-0.5 39.5,-0.5C 43.7133,0.939944 47.7133,2.93994 51.5,5.5C 51.5,6.16667 51.8333,6.5 52.5,6.5C 53.5,8.16667 54.8333,9.5 56.5,10.5C 56.5,11.1667 56.8333,11.5 57.5,11.5C 58.4746,13.7952 59.8079,15.7952 61.5,17.5C 61.595,19.7857 62.2616,21.7857 63.5,23.5C 63.5,28.8333 63.5,34.1667 63.5,39.5C 62.2616,41.2143 61.595,43.2143 61.5,45.5C 60.6618,45.8417 60.3284,46.5084 60.5,47.5C 59.8333,47.5 59.5,47.8333 59.5,48.5C 58.6618,48.8417 58.3284,49.5084 58.5,50.5C 57.8333,50.5 57.5,50.8333 57.5,51.5C 56.8333,51.5 56.5,51.8333 56.5,52.5C 54.8333,53.5 53.5,54.8333 52.5,56.5C 51.8333,56.5 51.5,56.8333 51.5,57.5C 50.8333,57.5 50.5,57.8333 50.5,58.5C 49.5084,58.3284 48.8417,58.6618 48.5,59.5C 47.8333,59.5 47.5,59.8333 47.5,60.5C 46.5084,60.3284 45.8417,60.6618 45.5,61.5C 43.2143,61.595 41.2143,62.2616 39.5,63.5C 34.1667,63.5 28.8333,63.5 23.5,63.5C 21.7857,62.2616 19.7857,61.595 17.5,61.5C 15.7952,59.8079 13.7952,58.4746 11.5,57.5C 11.5,56.8333 11.1667,56.5 10.5,56.5C 9.5,54.8333 8.16667,53.5 6.5,52.5C 6.5,51.8333 6.16667,51.5 5.5,51.5C 4.52544,49.2048 3.19211,47.2048 1.5,45.5C 1.40505,43.2143 0.738379,41.2143 -0.5,39.5C -0.5,34.1667 -0.5,28.8333 -0.5,23.5C 0.738379,21.7857 1.40505,19.7857 1.5,17.5C 3.19211,15.7952 4.52544,13.7952 5.5,11.5C 6.16667,11.5 6.5,11.1667 6.5,10.5C 8.16667,9.5 9.5,8.16667 10.5,6.5C 11.1667,6.5 11.5,6.16667 11.5,5.5C 15.2867,2.93994 19.2867,0.939944 23.5,-0.5 Z"/></g>
<g><path style="opacity:1" fill="#f9faf9" d="M 43.5,-0.5 C 44.1667,-0.5 44.8333,-0.5 45.5,-0.5C 44.8333,0.833333 44.1667,0.833333 43.5,-0.5 Z"/></g>
<g><path style="opacity:1" fill="#f9faf9" d="M 11.5,5.5 C 10.8333,5.5 10.5,5.83333 10.5,6.5C 8.02482,6.2533 8.02482,5.58664 10.5,4.5C 11.1067,4.62358 11.44,4.95691 11.5,5.5 Z"/></g>
<g><path style="opacity:1" fill="#f9faf9" d="M 51.5,5.5 C 52.4971,4.28749 53.4971,4.45415 54.5,6C 53.9056,6.46434 53.2389,6.63101 52.5,6.5C 51.8333,6.5 51.5,6.16667 51.5,5.5 Z"/></g>
<g><path style="opacity:1" fill="#f9faf9" d="M 6.5,10.5 C 5.83333,10.5 5.5,10.8333 5.5,11.5C 4.28749,10.5029 4.45415,9.50289 6,8.5C 6.46434,9.09442 6.63101,9.76109 6.5,10.5 Z"/></g>
<g><path style="opacity:1" fill="#f9faf9" d="M 57.5,11.5 C 56.8333,11.5 56.5,11.1667 56.5,10.5C 56.7467,8.02482 57.4134,8.02482 58.5,10.5C 58.3764,11.1067 58.0431,11.44 57.5,11.5 Z"/></g>
<g><path style="opacity:1" fill="#fad8d8" d="M 1.5,17.5 C 1.16667,17.5 0.833333,17.5 0.5,17.5C 0.833333,14.8333 1.16667,14.8333 1.5,17.5 Z"/></g>
<g><path style="opacity:1" fill="#fad8d8" d="M 62.5,17.5 C 62.1667,17.5 61.8333,17.5 61.5,17.5C 61.8333,14.8333 62.1667,14.8333 62.5,17.5 Z"/></g>
<g><path style="opacity:1" fill="#f9faf9" d="M -0.5,17.5 C -0.166667,17.5 0.166667,17.5 0.5,17.5C 0.67158,18.4916 0.338246,19.1583 -0.5,19.5C -0.5,18.8333 -0.5,18.1667 -0.5,17.5 Z"/></g>
<g><path style="opacity:1" fill="#f9faf9" d="M 62.5,17.5 C 62.8333,17.5 63.1667,17.5 63.5,17.5C 63.5,18.1667 63.5,18.8333 63.5,19.5C 62.6618,19.1583 62.3284,18.4916 62.5,17.5 Z"/></g>
<g><path style="opacity:1" fill="#e27a24" d="M 16.5,20.5 C 22.7654,19.8663 27.5987,22.1996 31,27.5C 32.7131,31.8734 35.2131,35.7067 38.5,39C 47.6667,40.5 51.5,36.6667 50,27.5C 44.5135,21.9196 39.5135,22.253 35,28.5C 34.3076,27.9747 33.8076,27.3081 33.5,26.5C 40.316,18.4833 46.816,18.8166 53,27.5C 54.1667,38.3333 49.3333,43.1667 38.5,42C 36.9095,40.9542 35.4095,39.7875 34,38.5C 31.5894,32.8325 28.0894,27.9991 23.5,24C 14.7828,23.051 11.2828,26.8844 13,35.5C 16.4204,39.7532 20.5871,40.5865 25.5,38C 26.7014,37.0975 27.5348,35.9308 28,34.5C 30.0149,36.4783 29.8483,38.3116 27.5,40C 17.6902,44.9269 11.6902,42.0936 9.5,31.5C 9.51528,29.3659 10.0153,27.3659 11,25.5C 12.8119,23.6997 14.6452,22.0331 16.5,20.5 Z"/></g>
<g><path style="opacity:1" fill="#f9faf9" d="M -0.5,43.5 C 0.338246,43.8417 0.67158,44.5084 0.5,45.5C 0.166667,45.5 -0.166667,45.5 -0.5,45.5C -0.5,44.8333 -0.5,44.1667 -0.5,43.5 Z"/></g>
<g><path style="opacity:1" fill="#f9faf9" d="M 63.5,43.5 C 63.5,44.1667 63.5,44.8333 63.5,45.5C 63.1667,45.5 62.8333,45.5 62.5,45.5C 62.3284,44.5084 62.6618,43.8417 63.5,43.5 Z"/></g>
<g><path style="opacity:1" fill="#fae9e9" d="M 0.5,45.5 C 0.833333,45.5 1.16667,45.5 1.5,45.5C 1.16667,48.1667 0.833333,48.1667 0.5,45.5 Z"/></g>
<g><path style="opacity:1" fill="#fae9e9" d="M 61.5,45.5 C 61.8333,45.5 62.1667,45.5 62.5,45.5C 62.6716,46.4916 62.3382,47.1583 61.5,47.5C 61.5,46.8333 61.5,46.1667 61.5,45.5 Z"/></g>
<g><path style="opacity:1" fill="#f9c8c7" d="M 60.5,47.5 C 60.8333,47.5 61.1667,47.5 61.5,47.5C 61.3147,48.1701 60.9813,48.1701 60.5,47.5 Z"/></g>
<g><path style="opacity:1" fill="#f9faf9" d="M 59.5,48.5 C 59.8333,48.5 60.1667,48.5 60.5,48.5C 60.6716,49.4916 60.3382,50.1583 59.5,50.5C 59.5,49.8333 59.5,49.1667 59.5,48.5 Z"/></g>
<g><path style="opacity:1" fill="#f9fac7" d="M 58.5,50.5 C 58.8333,50.5 59.1667,50.5 59.5,50.5C 59.3147,51.1701 58.9813,51.1701 58.5,50.5 Z"/></g>
<g><path style="opacity:1" fill="#f9faf9" d="M 5.5,51.5 C 6.16667,51.5 6.5,51.8333 6.5,52.5C 6.2533,54.9752 5.58664,54.9752 4.5,52.5C 4.62358,51.8933 4.95691,51.56 5.5,51.5 Z"/></g>
<g><path style="opacity:1" fill="#f9faf9" d="M 57.5,51.5 C 57.8333,51.5 58.1667,51.5 58.5,51.5C 57.968,54.4596 57.3013,54.7929 56.5,52.5C 57.1667,52.5 57.5,52.1667 57.5,51.5 Z"/></g>
<g><path style="opacity:1" fill="#f9faf9" d="M 10.5,56.5 C 11.1667,56.5 11.5,56.8333 11.5,57.5C 10.5029,58.7125 9.50289,58.5458 8.5,57C 9.09442,56.5357 9.76109,56.369 10.5,56.5 Z"/></g>
<g><path style="opacity:1" fill="#f9faf9" d="M 52.5,56.5 C 54.7929,57.3013 54.4596,57.968 51.5,58.5C 51.5,58.1667 51.5,57.8333 51.5,57.5C 52.1667,57.5 52.5,57.1667 52.5,56.5 Z"/></g>
<g><path style="opacity:1" fill="#f9fac7" d="M 50.5,58.5 C 50.8333,58.5 51.1667,58.5 51.5,58.5C 51.3147,59.1701 50.9813,59.1701 50.5,58.5 Z"/></g>
<g><path style="opacity:1" fill="#f9faf9" d="M 48.5,60.5 C 48.5,60.1667 48.5,59.8333 48.5,59.5C 49.1667,59.5 49.8333,59.5 50.5,59.5C 50.1583,60.3382 49.4916,60.6716 48.5,60.5 Z"/></g>
<g><path style="opacity:1" fill="#f9c8c7" d="M 47.5,60.5 C 47.8333,60.5 48.1667,60.5 48.5,60.5C 48.3147,61.1701 47.9813,61.1701 47.5,60.5 Z"/></g>
<g><path style="opacity:1" fill="#fad8d8" d="M 17.5,61.5 C 17.5,61.8333 17.5,62.1667 17.5,62.5C 14.8333,62.1667 14.8333,61.8333 17.5,61.5 Z"/></g>
<g><path style="opacity:1" fill="#fae9e9" d="M 45.5,62.5 C 45.5,62.1667 45.5,61.8333 45.5,61.5C 46.1667,61.5 46.8333,61.5 47.5,61.5C 47.1583,62.3382 46.4916,62.6716 45.5,62.5 Z"/></g>
<g><path style="opacity:1" fill="#f9faf9" d="M 17.5,63.5 C 17.5,63.1667 17.5,62.8333 17.5,62.5C 18.4916,62.3284 19.1583,62.6618 19.5,63.5C 18.8333,63.5 18.1667,63.5 17.5,63.5 Z"/></g>
<g><path style="opacity:1" fill="#f9faf9" d="M 43.5,63.5 C 43.8417,62.6618 44.5084,62.3284 45.5,62.5C 45.5,62.8333 45.5,63.1667 45.5,63.5C 44.8333,63.5 44.1667,63.5 43.5,63.5 Z"/></g>
</svg>
