<?xml version="1.0" encoding="UTF-8"?>
<!DOCTYPE svg PUBLIC "-//W3C//DTD SVG 1.1//EN" "http://www.w3.org/Graphics/SVG/1.1/DTD/svg11.dtd">
<svg xmlns="http://www.w3.org/2000/svg" version="1.1" width="192px" height="192px" style="shape-rendering:geometricPrecision; text-rendering:geometricPrecision; image-rendering:optimizeQuality; fill-rule:evenodd; clip-rule:evenodd" xmlns:xlink="http://www.w3.org/1999/xlink">
<g><path style="opacity:1" fill="#fbf9e5" d="M 71.5,-0.5 C 72.5,-0.5 73.5,-0.5 74.5,-0.5C 73.5,0.833333 72.5,0.833333 71.5,-0.5 Z"/></g>
<g><path style="opacity:1" fill="#f9ece6" d="M 80.5,-0.5 C 90.5,-0.5 100.5,-0.5 110.5,-0.5C 114.615,0.943405 118.948,1.94341 123.5,2.5C 124.209,3.40397 125.209,3.73731 126.5,3.5C 132.432,6.12848 138.432,8.79515 144.5,11.5C 144.5,12.1667 144.833,12.5 145.5,12.5C 145.842,13.3382 146.508,13.6716 147.5,13.5C 147.5,14.1667 147.833,14.5 148.5,14.5C 159.5,22.1667 168.833,31.5 176.5,42.5C 176.5,43.1667 176.833,43.5 177.5,43.5C 177.328,44.4916 177.662,45.1583 178.5,45.5C 178.5,46.1667 178.833,46.5 179.5,46.5C 182.205,52.5684 184.872,58.5684 187.5,64.5C 187.263,65.791 187.596,66.791 188.5,67.5C 189.057,72.0516 190.057,76.3849 191.5,80.5C 191.5,90.5 191.5,100.5 191.5,110.5C 190.057,114.615 189.057,118.948 188.5,123.5C 187.596,124.209 187.263,125.209 187.5,126.5C 185.654,129.54 184.321,132.873 183.5,136.5C 182.662,136.842 182.328,137.508 182.5,138.5C 181.662,138.842 181.328,139.508 181.5,140.5C 180.662,140.842 180.328,141.508 180.5,142.5C 179.662,142.842 179.328,143.508 179.5,144.5C 178.833,144.5 178.5,144.833 178.5,145.5C 177.662,145.842 177.328,146.508 177.5,147.5C 176.833,147.5 176.5,147.833 176.5,148.5C 175.662,148.842 175.328,149.508 175.5,150.5C 174.833,150.5 174.5,150.833 174.5,151.5C 173.662,151.842 173.328,152.508 173.5,153.5C 172.833,153.5 172.5,153.833 172.5,154.5C 170.457,155.579 169.124,157.246 168.5,159.5C 167.833,159.5 167.5,159.833 167.5,160.5C 166.833,160.5 166.5,160.833 166.5,161.5C 165.833,161.5 165.5,161.833 165.5,162.5C 164.833,162.5 164.5,162.833 164.5,163.5C 163.833,163.5 163.5,163.833 163.5,164.5C 162.833,164.5 162.5,164.833 162.5,165.5C 161.833,165.5 161.5,165.833 161.5,166.5C 160.833,166.5 160.5,166.833 160.5,167.5C 159.833,167.5 159.5,167.833 159.5,168.5C 157.246,169.124 155.579,170.457 154.5,172.5C 153.833,172.5 153.5,172.833 153.5,173.5C 152.508,173.328 151.842,173.662 151.5,174.5C 150.833,174.5 150.5,174.833 150.5,175.5C 149.508,175.328 148.842,175.662 148.5,176.5C 147.833,176.5 147.5,176.833 147.5,177.5C 146.508,177.328 145.842,177.662 145.5,178.5C 144.833,178.5 144.5,178.833 144.5,179.5C 143.508,179.328 142.842,179.662 142.5,180.5C 141.508,180.328 140.842,180.662 140.5,181.5C 139.508,181.328 138.842,181.662 138.5,182.5C 137.508,182.328 136.842,182.662 136.5,183.5C 132.873,184.321 129.54,185.654 126.5,187.5C 125.209,187.263 124.209,187.596 123.5,188.5C 118.948,189.057 114.615,190.057 110.5,191.5C 100.5,191.5 90.5,191.5 80.5,191.5C 76.3849,190.057 72.0516,189.057 67.5,188.5C 66.791,187.596 65.791,187.263 64.5,187.5C 61.46,185.654 58.1267,184.321 54.5,183.5C 54.1583,182.662 53.4916,182.328 52.5,182.5C 50.8185,180.992 48.8185,179.992 46.5,179.5C 46.5,178.833 46.1667,178.5 45.5,178.5C 45.1583,177.662 44.4916,177.328 43.5,177.5C 43.5,176.833 43.1667,176.5 42.5,176.5C 31.5,168.833 22.1667,159.5 14.5,148.5C 14.5,147.833 14.1667,147.5 13.5,147.5C 13.6716,146.508 13.3382,145.842 12.5,145.5C 12.5,144.833 12.1667,144.5 11.5,144.5C 11.0075,142.181 10.0075,140.181 8.5,138.5C 8.67158,137.508 8.33825,136.842 7.5,136.5C 6.67921,132.873 5.34588,129.54 3.5,126.5C 3.73731,125.209 3.40397,124.209 2.5,123.5C 1.94341,118.948 0.943405,114.615 -0.5,110.5C -0.5,100.5 -0.5,90.5 -0.5,80.5C 0.943405,76.3849 1.94341,72.0516 2.5,67.5C 3.40397,66.791 3.73731,65.791 3.5,64.5C 6.12848,58.5684 8.79515,52.5684 11.5,46.5C 12.1667,46.5 12.5,46.1667 12.5,45.5C 13.3382,45.1583 13.6716,44.4916 13.5,43.5C 14.1667,43.5 14.5,43.1667 14.5,42.5C 22.1667,31.5 31.5,22.1667 42.5,14.5C 43.1667,14.5 43.5,14.1667 43.5,13.5C 44.4916,13.6716 45.1583,13.3382 45.5,12.5C 46.1667,12.5 46.5,12.1667 46.5,11.5C 52.5684,8.79515 58.5684,6.12848 64.5,3.5C 65.791,3.73731 66.791,3.40397 67.5,2.5C 72.0516,1.94341 76.3849,0.943405 80.5,-0.5 Z"/></g>
<g><path style="opacity:1" fill="#e7e6d2" d="M 116.5,-0.5 C 117.5,-0.5 118.5,-0.5 119.5,-0.5C 118.5,0.833333 117.5,0.833333 116.5,-0.5 Z"/></g>
<g><path style="opacity:1" fill="#f9faf9" d="M 67.5,2.5 C 66.209,2.26269 65.209,2.59603 64.5,3.5C 61.4017,3.58747 61.0684,3.08747 63.5,2C 65.7538,0.849504 68.0871,0.516171 70.5,1C 69.2625,1.23209 68.2625,1.73209 67.5,2.5 Z"/></g>
<g><path style="opacity:1" fill="#fcece9" d="M 126.5,3.5 C 125.791,2.59603 124.791,2.26269 123.5,2.5C 122.737,1.73209 121.737,1.23209 120.5,1C 123.685,0.612056 126.685,1.27872 129.5,3C 128.552,3.48278 127.552,3.64945 126.5,3.5 Z"/></g>
<g><path style="opacity:1" fill="#faf9e9" d="M 46.5,11.5 C 45.8333,11.5 45.5,11.8333 45.5,12.5C 44.8333,12.5 44.1667,12.5 43.5,12.5C 44.221,10.6182 45.221,10.2848 46.5,11.5 Z"/></g>
<g><path style="opacity:1" fill="#f9faf9" d="M 144.5,11.5 C 145.779,10.2848 146.779,10.6182 147.5,12.5C 146.833,12.5 146.167,12.5 145.5,12.5C 144.833,12.5 144.5,12.1667 144.5,11.5 Z"/></g>
<g><path style="opacity:1" fill="#f9faf9" d="M 43.5,12.5 C 43.5,12.8333 43.5,13.1667 43.5,13.5C 42.8333,13.5 42.5,13.8333 42.5,14.5C 40.2071,13.6987 40.5404,13.032 43.5,12.5 Z"/></g>
<g><path style="opacity:1" fill="#faf9f0" d="M 147.5,13.5 C 147.5,13.1667 147.5,12.8333 147.5,12.5C 150.46,13.032 150.793,13.6987 148.5,14.5C 147.833,14.5 147.5,14.1667 147.5,13.5 Z"/></g>
<g><path style="opacity:1" fill="#faf9f0" d="M 14.5,42.5 C 13.8333,42.5 13.5,42.8333 13.5,43.5C 13.1667,43.5 12.8333,43.5 12.5,43.5C 13.032,40.5404 13.6987,40.2071 14.5,42.5 Z"/></g>
<g><path style="opacity:1" fill="#f9faf9" d="M 178.5,43.5 C 178.167,43.5 177.833,43.5 177.5,43.5C 176.833,43.5 176.5,43.1667 176.5,42.5C 177.301,40.2071 177.968,40.5404 178.5,43.5 Z"/></g>
<g><path style="opacity:1" fill="#f9faf9" d="M 12.5,43.5 C 12.5,44.1667 12.5,44.8333 12.5,45.5C 11.8333,45.5 11.5,45.8333 11.5,46.5C 10.2848,45.221 10.6182,44.221 12.5,43.5 Z"/></g>
<g><path style="opacity:1" fill="#faf9e9" d="M 178.5,43.5 C 180.382,44.221 180.715,45.221 179.5,46.5C 178.833,46.5 178.5,46.1667 178.5,45.5C 178.5,44.8333 178.5,44.1667 178.5,43.5 Z"/></g>
<g><path style="opacity:1" fill="#f9faf9" d="M 188.5,67.5 C 188.737,66.209 188.404,65.209 187.5,64.5C 187.413,61.4017 187.913,61.0684 189,63.5C 190.15,65.7538 190.484,68.0871 190,70.5C 189.768,69.2625 189.268,68.2625 188.5,67.5 Z"/></g>
<g><path style="opacity:1" fill="#e17b20" d="M 57.5,62.5 C 72.2709,62.3015 83.7709,68.3015 92,80.5C 97.4144,90.331 103.081,99.9977 109,109.5C 117.799,120.741 128.632,123.241 141.5,117C 153.343,108.134 156.177,96.9672 150,83.5C 141.968,72.6077 131.468,69.441 118.5,74C 113.333,77.8333 108.833,82.3333 105,87.5C 103.111,84.8884 101.611,82.0551 100.5,79C 111.265,63.0566 125.598,58.7233 143.5,66C 160.266,75.7105 165.766,89.8772 160,108.5C 151.255,125.538 137.421,132.038 118.5,128C 111.865,125.37 106.365,121.203 102,115.5C 96.0811,105.998 90.4144,96.331 85,86.5C 77.7571,74.4632 67.2571,69.9632 53.5,73C 36.7602,82.2198 33.2602,95.0531 43,111.5C 52.639,121.476 63.4724,122.976 75.5,116C 79.7523,112.419 83.2523,108.252 86,103.5C 87.5,106.5 89,109.5 90.5,112.5C 76.82,131.224 60.1533,134.39 40.5,122C 28.4066,110.119 25.5732,96.2852 32,80.5C 37.9301,70.7187 46.4301,64.7187 57.5,62.5 Z"/></g>
<g><path style="opacity:1" fill="#fbf3ee" d="M 3.5,64.5 C 2.59603,65.209 2.26269,66.209 2.5,67.5C 1.73209,68.2625 1.23209,69.2625 1,70.5C 0.612056,67.3154 1.27872,64.3154 3,61.5C 3.48278,62.448 3.64945,63.448 3.5,64.5 Z"/></g>
<g><path style="opacity:1" fill="#fbf9e5" d="M -0.5,71.5 C 0.833333,72.5 0.833333,73.5 -0.5,74.5C -0.5,73.5 -0.5,72.5 -0.5,71.5 Z"/></g>
<g><path style="opacity:1" fill="#fbf9e5" d="M 191.5,71.5 C 191.5,72.5 191.5,73.5 191.5,74.5C 190.167,73.5 190.167,72.5 191.5,71.5 Z"/></g>
<g><path style="opacity:1" fill="#fbf9e5" d="M -0.5,116.5 C 0.833333,117.5 0.833333,118.5 -0.5,119.5C -0.5,118.5 -0.5,117.5 -0.5,116.5 Z"/></g>
<g><path style="opacity:1" fill="#fbf9e5" d="M 191.5,116.5 C 191.5,117.5 191.5,118.5 191.5,119.5C 190.167,118.5 190.167,117.5 191.5,116.5 Z"/></g>
<g><path style="opacity:1" fill="#f9faf9" d="M 2.5,123.5 C 2.26269,124.791 2.59603,125.791 3.5,126.5C 3.58747,129.598 3.08747,129.932 2,127.5C 0.849504,125.246 0.516171,122.913 1,120.5C 1.23209,121.737 1.73209,122.737 2.5,123.5 Z"/></g>
<g><path style="opacity:1" fill="#fcece9" d="M 187.5,126.5 C 188.404,125.791 188.737,124.791 188.5,123.5C 189.268,122.737 189.768,121.737 190,120.5C 190.388,123.685 189.721,126.685 188,129.5C 187.517,128.552 187.351,127.552 187.5,126.5 Z"/></g>
<g><path style="opacity:1" fill="#faf9ae" d="M 7.5,136.5 C 7.5,137.167 7.5,137.833 7.5,138.5C 6.16667,137.833 6.16667,137.167 7.5,136.5 Z"/></g>
<g><path style="opacity:1" fill="#e1d0d0" d="M 183.5,136.5 C 184.853,138.128 184.519,139.462 182.5,140.5C 182.5,139.833 182.5,139.167 182.5,138.5C 183.338,138.158 183.672,137.492 183.5,136.5 Z"/></g>
<g><path style="opacity:1" fill="#fbe5e4" d="M 7.5,138.5 C 7.83333,138.5 8.16667,138.5 8.5,138.5C 8.16667,141.167 7.83333,141.167 7.5,138.5 Z"/></g>
<g><path style="opacity:1" fill="#f9faf9" d="M 181.5,140.5 C 181.833,140.5 182.167,140.5 182.5,140.5C 182.672,141.492 182.338,142.158 181.5,142.5C 181.5,141.833 181.5,141.167 181.5,140.5 Z"/></g>
<g><path style="opacity:1" fill="#fae9e9" d="M 180.5,142.5 C 180.833,142.5 181.167,142.5 181.5,142.5C 181.672,143.492 181.338,144.158 180.5,144.5C 180.5,143.833 180.5,143.167 180.5,142.5 Z"/></g>
<g><path style="opacity:1" fill="#faf9e9" d="M 11.5,144.5 C 12.1667,144.5 12.5,144.833 12.5,145.5C 12.5,146.167 12.5,146.833 12.5,147.5C 10.6182,146.779 10.2848,145.779 11.5,144.5 Z"/></g>
<g><path style="opacity:1" fill="#f9faf9" d="M 179.5,144.5 C 179.833,144.5 180.167,144.5 180.5,144.5C 180.573,146.027 179.906,147.027 178.5,147.5C 178.5,146.833 178.5,146.167 178.5,145.5C 179.167,145.5 179.5,145.167 179.5,144.5 Z"/></g>
<g><path style="opacity:1" fill="#f9faf9" d="M 12.5,147.5 C 12.8333,147.5 13.1667,147.5 13.5,147.5C 14.1667,147.5 14.5,147.833 14.5,148.5C 13.6987,150.793 13.032,150.46 12.5,147.5 Z"/></g>
<g><path style="opacity:1" fill="#faf9f0" d="M 177.5,147.5 C 177.833,147.5 178.167,147.5 178.5,147.5C 178.573,149.027 177.906,150.027 176.5,150.5C 176.5,149.833 176.5,149.167 176.5,148.5C 177.167,148.5 177.5,148.167 177.5,147.5 Z"/></g>
<g><path style="opacity:1" fill="#f9faf9" d="M 175.5,150.5 C 175.833,150.5 176.167,150.5 176.5,150.5C 176.315,151.17 175.981,151.17 175.5,150.5 Z"/></g>
<g><path style="opacity:1" fill="#f9faf9" d="M 174.5,151.5 C 174.833,151.5 175.167,151.5 175.5,151.5C 175.672,152.492 175.338,153.158 174.5,153.5C 174.5,152.833 174.5,152.167 174.5,151.5 Z"/></g>
<g><path style="opacity:1" fill="#f9faf9" d="M 173.5,153.5 C 173.833,153.5 174.167,153.5 174.5,153.5C 174.315,154.17 173.981,154.17 173.5,153.5 Z"/></g>
<g><path style="opacity:1" fill="#f9faf9" d="M 172.5,154.5 C 172.833,154.5 173.167,154.5 173.5,154.5C 173.315,155.17 172.981,155.17 172.5,154.5 Z"/></g>
<g><path style="opacity:1" fill="#f9faf9" d="M 168.5,159.5 C 169.833,160.167 169.833,160.167 168.5,159.5 Z"/></g>
<g><path style="opacity:1" fill="#f9fad3" d="M 167.5,160.5 C 167.833,160.5 168.167,160.5 168.5,160.5C 168.315,161.17 167.981,161.17 167.5,160.5 Z"/></g>
<g><path style="opacity:1" fill="#f9fad3" d="M 166.5,161.5 C 166.833,161.5 167.167,161.5 167.5,161.5C 167.315,162.17 166.981,162.17 166.5,161.5 Z"/></g>
<g><path style="opacity:1" fill="#f9faf9" d="M 165.5,162.5 C 165.833,162.5 166.167,162.5 166.5,162.5C 166.315,163.17 165.981,163.17 165.5,162.5 Z"/></g>
<g><path style="opacity:1" fill="#f9d4d3" d="M 164.5,163.5 C 164.833,163.5 165.167,163.5 165.5,163.5C 165.315,164.17 164.981,164.17 164.5,163.5 Z"/></g>
<g><path style="opacity:1" fill="#f9d4d3" d="M 163.5,164.5 C 163.833,164.5 164.167,164.5 164.5,164.5C 164.315,165.17 163.981,165.17 163.5,164.5 Z"/></g>
<g><path style="opacity:1" fill="#f9faf9" d="M 162.5,165.5 C 162.833,165.5 163.167,165.5 163.5,165.5C 163.315,166.17 162.981,166.17 162.5,165.5 Z"/></g>
<g><path style="opacity:1" fill="#f9fad3" d="M 161.5,166.5 C 161.833,166.5 162.167,166.5 162.5,166.5C 162.315,167.17 161.981,167.17 161.5,166.5 Z"/></g>
<g><path style="opacity:1" fill="#f9fad3" d="M 160.5,167.5 C 160.833,167.5 161.167,167.5 161.5,167.5C 161.315,168.17 160.981,168.17 160.5,167.5 Z"/></g>
<g><path style="opacity:1" fill="#f9faf9" d="M 159.5,168.5 C 159.833,168.5 160.167,168.5 160.5,168.5C 160.315,169.17 159.981,169.17 159.5,168.5 Z"/></g>
<g><path style="opacity:1" fill="#f9faf9" d="M 154.5,172.5 C 155.833,173.167 155.833,173.167 154.5,172.5 Z"/></g>
<g><path style="opacity:1" fill="#f9faf9" d="M 153.5,173.5 C 153.833,173.5 154.167,173.5 154.5,173.5C 154.315,174.17 153.981,174.17 153.5,173.5 Z"/></g>
<g><path style="opacity:1" fill="#f9faf9" d="M 151.5,175.5 C 151.5,175.167 151.5,174.833 151.5,174.5C 152.167,174.5 152.833,174.5 153.5,174.5C 153.158,175.338 152.492,175.672 151.5,175.5 Z"/></g>
<g><path style="opacity:1" fill="#f9d4d3" d="M 150.5,175.5 C 150.833,175.5 151.167,175.5 151.5,175.5C 151.315,176.17 150.981,176.17 150.5,175.5 Z"/></g>
<g><path style="opacity:1" fill="#faf9f0" d="M 42.5,176.5 C 43.1667,176.5 43.5,176.833 43.5,177.5C 43.5,177.833 43.5,178.167 43.5,178.5C 40.5404,177.968 40.2071,177.301 42.5,176.5 Z"/></g>
<g><path style="opacity:1" fill="#f9faf9" d="M 148.5,176.5 C 149.167,176.5 149.833,176.5 150.5,176.5C 150.027,177.906 149.027,178.573 147.5,178.5C 147.5,178.167 147.5,177.833 147.5,177.5C 148.167,177.5 148.5,177.167 148.5,176.5 Z"/></g>
<g><path style="opacity:1" fill="#f9faf9" d="M 43.5,178.5 C 44.1667,178.5 44.8333,178.5 45.5,178.5C 46.1667,178.5 46.5,178.833 46.5,179.5C 45.221,180.715 44.221,180.382 43.5,178.5 Z"/></g>
<g><path style="opacity:1" fill="#faf9e9" d="M 145.5,178.5 C 146.167,178.5 146.833,178.5 147.5,178.5C 147.027,179.906 146.027,180.573 144.5,180.5C 144.5,180.167 144.5,179.833 144.5,179.5C 145.167,179.5 145.5,179.167 145.5,178.5 Z"/></g>
<g><path style="opacity:1" fill="#f9faf9" d="M 142.5,181.5 C 142.5,181.167 142.5,180.833 142.5,180.5C 143.167,180.5 143.833,180.5 144.5,180.5C 144.158,181.338 143.492,181.672 142.5,181.5 Z"/></g>
<g><path style="opacity:1" fill="#f9faf9" d="M 140.5,182.5 C 140.5,182.167 140.5,181.833 140.5,181.5C 141.167,181.5 141.833,181.5 142.5,181.5C 142.158,182.338 141.492,182.672 140.5,182.5 Z"/></g>
<g><path style="opacity:1" fill="#fbe5e4" d="M 138.5,183.5 C 138.5,183.167 138.5,182.833 138.5,182.5C 139.167,182.5 139.833,182.5 140.5,182.5C 140.158,183.338 139.492,183.672 138.5,183.5 Z"/></g>
<g><path style="opacity:1" fill="#caacab" d="M 52.5,182.5 C 52.8417,183.338 53.5084,183.672 54.5,183.5C 53.1512,184.797 51.8179,184.63 50.5,183C 51.0944,182.536 51.7611,182.369 52.5,182.5 Z"/></g>
<g><path style="opacity:1" fill="#faf9ae" d="M 136.5,183.5 C 137.167,183.5 137.833,183.5 138.5,183.5C 137.833,184.833 137.167,184.833 136.5,183.5 Z"/></g>
<g><path style="opacity:1" fill="#f9faf9" d="M 126.5,187.5 C 129.598,187.413 129.932,187.913 127.5,189C 125.246,190.15 122.913,190.484 120.5,190C 121.737,189.768 122.737,189.268 123.5,188.5C 124.791,188.737 125.791,188.404 126.5,187.5 Z"/></g>
<g><path style="opacity:1" fill="#fbf3ee" d="M 64.5,187.5 C 65.209,188.404 66.209,188.737 67.5,188.5C 68.2625,189.268 69.2625,189.768 70.5,190C 67.3154,190.388 64.3154,189.721 61.5,188C 62.448,187.517 63.448,187.351 64.5,187.5 Z"/></g>
<g><path style="opacity:1" fill="#fbf9e5" d="M 71.5,191.5 C 72.5,190.167 73.5,190.167 74.5,191.5C 73.5,191.5 72.5,191.5 71.5,191.5 Z"/></g>
<g><path style="opacity:1" fill="#fbf9e5" d="M 116.5,191.5 C 117.5,190.167 118.5,190.167 119.5,191.5C 118.5,191.5 117.5,191.5 116.5,191.5 Z"/></g>
</svg>
