<?xml version="1.0" encoding="UTF-8"?>
<!DOCTYPE svg PUBLIC "-//W3C//DTD SVG 1.1//EN" "http://www.w3.org/Graphics/SVG/1.1/DTD/svg11.dtd">
<svg xmlns="http://www.w3.org/2000/svg" version="1.1" width="512px" height="512px" style="shape-rendering:geometricPrecision; text-rendering:geometricPrecision; image-rendering:optimizeQuality; fill-rule:evenodd; clip-rule:evenodd" xmlns:xlink="http://www.w3.org/1999/xlink">
<g><path style="opacity:1" fill="#f9ece6" d="M 233.5,-0.5 C 248.167,-0.5 262.833,-0.5 277.5,-0.5C 377.769,12.0418 449.269,64.0418 492,155.5C 502.296,180.684 508.796,206.684 511.5,233.5C 511.5,248.167 511.5,262.833 511.5,277.5C 498.958,377.769 446.958,449.269 355.5,492C 330.316,502.296 304.316,508.796 277.5,511.5C 262.833,511.5 248.167,511.5 233.5,511.5C 133.231,498.958 61.7312,446.958 19,355.5C 8.70393,330.316 2.20393,304.316 -0.5,277.5C -0.5,262.833 -0.5,248.167 -0.5,233.5C 12.0418,133.231 64.0418,61.7312 155.5,19C 180.684,8.70393 206.684,2.20393 233.5,-0.5 Z"/></g>
<g><path style="opacity:1" fill="#e17d21" d="M 153.5,167.5 C 186.355,164.723 213.522,175.723 235,200.5C 238.091,205.014 241.425,209.347 245,213.5C 257.852,234.538 270.186,255.872 282,277.5C 290.052,290.884 300.218,302.384 312.5,312C 333.613,322.918 354.946,323.252 376.5,313C 403.428,295.567 413.595,271.067 407,239.5C 393.956,205.381 369.122,190.214 332.5,194C 319.689,196.987 308.689,203.154 299.5,212.5C 292.776,219.623 286.776,227.289 281.5,235.5C 276.464,227.934 271.797,220.101 267.5,212C 296.625,169.85 335.292,157.85 383.5,176C 420.613,196.051 437.446,227.217 434,269.5C 423.586,317.079 394.086,342.746 345.5,346.5C 317.882,345.939 295.049,335.273 277,314.5C 271.177,307.521 265.844,300.188 261,292.5C 249.4,271.243 237.4,250.243 225,229.5C 217.167,217.667 207.333,207.833 195.5,200C 160.364,185.737 131.864,193.903 110,224.5C 94.0806,258.164 100.581,286.664 129.5,310C 149.615,322.102 170.615,323.769 192.5,315C 208.044,305.288 220.378,292.455 229.5,276.5C 234.566,284.241 239.232,292.241 243.5,300.5C 214.591,343.192 175.925,355.692 127.5,338C 87.1374,315.959 70.6374,282.125 78,236.5C 89.7013,198.627 114.868,175.627 153.5,167.5 Z"/></g>
</svg>
