<?xml version="1.0" encoding="UTF-8"?>
<!DOCTYPE svg PUBLIC "-//W3C//DTD SVG 1.1//EN" "http://www.w3.org/Graphics/SVG/1.1/DTD/svg11.dtd">
<svg xmlns="http://www.w3.org/2000/svg" version="1.1" width="24px" height="24px" style="shape-rendering:geometricPrecision; text-rendering:geometricPrecision; image-rendering:optimizeQuality; fill-rule:evenodd; clip-rule:evenodd" xmlns:xlink="http://www.w3.org/1999/xlink">
<g><path style="opacity:1" fill="#e07c1f" d="M 8.5,0.5 C 17.0406,2.89473 20.5406,8.56139 19,17.5C 16.7742,21.8608 13.2742,23.3608 8.5,22C 4.44315,20.0527 2.94315,16.886 4,12.5C 6.34479,8.81155 7.84479,4.81155 8.5,0.5 Z M 10.5,3.5 C 15.979,6.78409 17.8123,11.4508 16,17.5C 15.881,13.5791 14.0476,10.9124 10.5,9.5C 8.48162,11.6971 7.31495,14.3637 7,17.5C 6.5,16.5 6,15.5 5.5,14.5C 7.68295,11.0098 9.34962,7.34315 10.5,3.5 Z M 10.5,12.5 C 13.6639,14.5992 13.9972,16.9326 11.5,19.5C 10.2801,19.1131 9.61348,18.2798 9.5,17C 10.1476,15.5603 10.4809,14.0603 10.5,12.5 Z"/></g>
</svg>
