<?xml version="1.0" encoding="UTF-8"?>
<!DOCTYPE svg PUBLIC "-//W3C//DTD SVG 1.1//EN" "http://www.w3.org/Graphics/SVG/1.1/DTD/svg11.dtd">
<svg xmlns="http://www.w3.org/2000/svg" version="1.1" width="64px" height="64px" style="shape-rendering:geometricPrecision; text-rendering:geometricPrecision; image-rendering:optimizeQuality; fill-rule:evenodd; clip-rule:evenodd" xmlns:xlink="http://www.w3.org/1999/xlink">
<g><path style="opacity:1" fill="#f9ece5" d="M 23.5,-0.5 C 28.8333,-0.5 34.1667,-0.5 39.5,-0.5C 51.1667,3.83333 59.1667,11.8333 63.5,23.5C 63.5,28.8333 63.5,34.1667 63.5,39.5C 59.1667,51.1667 51.1667,59.1667 39.5,63.5C 34.1667,63.5 28.8333,63.5 23.5,63.5C 11.8333,59.1667 3.83333,51.1667 -0.5,39.5C -0.5,34.1667 -0.5,28.8333 -0.5,23.5C 3.83333,11.8333 11.8333,3.83333 23.5,-0.5 Z"/></g>
<g><path style="opacity:1" fill="#e48632" d="M 20.5,24.5 C 23.3198,24.2475 25.9865,24.7475 28.5,26C 30.8333,29 33.1667,32 35.5,35C 42.2756,37.7189 44.9423,35.5522 43.5,28.5C 39.8857,25.6872 36.5524,26.0205 33.5,29.5C 32.8123,27.2823 33.8123,25.7823 36.5,25C 43.7158,24.2156 46.8824,27.3823 46,34.5C 41.3333,39.8333 36.6667,39.8333 32,34.5C 29.813,27.6506 25.6463,25.6506 19.5,28.5C 17.6187,33.0708 19.1187,35.7374 24,36.5C 26.1745,36.1661 28.0079,35.1661 29.5,33.5C 30.5937,34.868 30.2603,36.0347 28.5,37C 21.8169,40.311 17.8169,38.311 16.5,31C 17.2054,28.4582 18.5387,26.2916 20.5,24.5 Z"/></g>
</svg>
