<?xml version="1.0" encoding="UTF-8"?>
<!DOCTYPE svg PUBLIC "-//W3C//DTD SVG 1.1//EN" "http://www.w3.org/Graphics/SVG/1.1/DTD/svg11.dtd">
<svg xmlns="http://www.w3.org/2000/svg" version="1.1" width="24px" height="28px" style="shape-rendering:geometricPrecision; text-rendering:geometricPrecision; image-rendering:optimizeQuality; fill-rule:evenodd; clip-rule:evenodd" xmlns:xlink="http://www.w3.org/1999/xlink">
<g><path style="opacity:1" fill="#6f6f6f" d="M 8.5,0.5 C 20.2066,0.699468 24.3732,6.36613 21,17.5C 18.9713,20.5956 16.138,22.2623 12.5,22.5C 12.5,19.8333 12.5,17.1667 12.5,14.5C 16.5,13.8333 16.5,13.1667 12.5,12.5C 12.0217,9.72243 13.0217,7.72243 15.5,6.5C 14.2243,5.35536 12.891,5.35536 11.5,6.5C 10.5344,8.39605 10.2011,10.396 10.5,12.5C 6.5,13.1667 6.5,13.8333 10.5,14.5C 11.2423,23.874 8.40901,24.874 2,17.5C -1.00899,9.67595 1.15768,4.00928 8.5,0.5 Z"/></g>
</svg>
