<?xml version="1.0" encoding="UTF-8"?>
<!DOCTYPE svg PUBLIC "-//W3C//DTD SVG 1.1//EN" "http://www.w3.org/Graphics/SVG/1.1/DTD/svg11.dtd">
<svg xmlns="http://www.w3.org/2000/svg" version="1.1" width="24px" height="28px" style="shape-rendering:geometricPrecision; text-rendering:geometricPrecision; image-rendering:optimizeQuality; fill-rule:evenodd; clip-rule:evenodd" xmlns:xlink="http://www.w3.org/1999/xlink">
<g><path style="opacity:1" fill="#707070" d="M 4.5,0.5 C 9.17853,0.334181 13.8452,0.500847 18.5,1C 19.4162,1.37424 20.2496,1.87424 21,2.5C 26.6667,21.1667 20.3333,27.1667 2,20.5C 0.437165,15.2825 0.103831,9.94913 1,4.5C 1.68972,2.64977 2.85639,1.31643 4.5,0.5 Z M 18.5,4.5 C 19.6484,8.98115 19.8151,13.6478 19,18.5C 14.2523,19.6349 9.41901,19.8015 4.5,19C 3.36513,14.2523 3.19846,9.41901 4,4.5C 8.93294,3.17637 13.7663,3.17637 18.5,4.5 Z M 9.5,8.5 C 14.1585,8.01463 15.4919,9.84796 13.5,14C 8.72816,14.8104 7.39483,12.9771 9.5,8.5 Z"/></g>
<g><path style="opacity:1" fill="#707070" d="M 18.5,4.5 C 18.5198,6.14297 17.8532,7.4763 16.5,8.5C 17.8959,16.1441 14.8959,18.6441 7.5,16C 5.1145,13.2935 4.94783,10.4602 7,7.5C 10.9174,6.33209 14.7507,5.33209 18.5,4.5 Z M 9.5,8.5 C 7.39483,12.9771 8.72816,14.8104 13.5,14C 15.4919,9.84796 14.1585,8.01463 9.5,8.5 Z"/></g>
</svg>
