<?xml version="1.0" encoding="UTF-8"?>
<!DOCTYPE svg PUBLIC "-//W3C//DTD SVG 1.1//EN" "http://www.w3.org/Graphics/SVG/1.1/DTD/svg11.dtd">
<svg xmlns="http://www.w3.org/2000/svg" version="1.1" width="64px" height="64px" style="shape-rendering:geometricPrecision; text-rendering:geometricPrecision; image-rendering:optimizeQuality; fill-rule:evenodd; clip-rule:evenodd" xmlns:xlink="http://www.w3.org/1999/xlink">
<g><path style="opacity:1" fill="#f9ece6" d="M 23.5,-0.5 C 28.8333,-0.5 34.1667,-0.5 39.5,-0.5C 51.1667,3.83333 59.1667,11.8333 63.5,23.5C 63.5,28.8333 63.5,34.1667 63.5,39.5C 59.1667,51.1667 51.1667,59.1667 39.5,63.5C 34.1667,63.5 28.8333,63.5 23.5,63.5C 11.8333,59.1667 3.83333,51.1667 -0.5,39.5C -0.5,34.1667 -0.5,28.8333 -0.5,23.5C 3.83333,11.8333 11.8333,3.83333 23.5,-0.5 Z"/></g>
<g><path style="opacity:1" fill="#e58836" d="M 18.5,18.5 C 25.104,21.3945 31.7707,24.2278 38.5,27C 41.8825,30.4819 43.2159,34.6486 42.5,39.5C 43.675,39.281 44.675,39.6143 45.5,40.5C 28.1059,48.2843 18.7725,42.451 17.5,23C 17.6052,21.4085 17.9386,19.9085 18.5,18.5 Z"/></g>
<g><path style="opacity:1" fill="#f9e7dd" d="M 19.5,21.5 C 24.5047,24.0131 29.8381,25.8464 35.5,27C 39.8553,29.8607 41.1887,33.694 39.5,38.5C 34.9953,36.7508 30.9953,34.2508 27.5,31C 26.6683,30.3123 26.0016,30.479 25.5,31.5C 28.5971,34.8884 32.2637,37.5551 36.5,39.5C 37.7112,40.2739 37.7112,41.1072 36.5,42C 31.2652,43.4659 27.0985,41.9659 24,37.5C 21.1735,32.5228 19.6735,27.1894 19.5,21.5 Z"/></g>
</svg>
