<?xml version="1.0" encoding="UTF-8"?>
<!DOCTYPE svg PUBLIC "-//W3C//DTD SVG 1.1//EN" "http://www.w3.org/Graphics/SVG/1.1/DTD/svg11.dtd">
<svg xmlns="http://www.w3.org/2000/svg" version="1.1" width="24px" height="24px" style="shape-rendering:geometricPrecision; text-rendering:geometricPrecision; image-rendering:optimizeQuality; fill-rule:evenodd; clip-rule:evenodd" xmlns:xlink="http://www.w3.org/1999/xlink">
<g><path style="opacity:1" fill="#e07c1f" d="M 17.5,-0.5 C 17.8333,-0.5 18.1667,-0.5 18.5,-0.5C 19.8726,1.20651 21.5393,2.53984 23.5,3.5C 23.5,4.16667 23.5,4.83333 23.5,5.5C 20.916,8.25189 17.916,10.4186 14.5,12C 17.4,14.3968 19.7333,17.2302 21.5,20.5C 20.8075,21.5178 20.1408,22.5178 19.5,23.5C 18.8333,23.5 18.1667,23.5 17.5,23.5C 14.4949,21.4902 12.1615,18.8235 10.5,15.5C 9.21931,18.1972 7.21931,20.8639 4.5,23.5C 3.5,23.5 2.5,23.5 1.5,23.5C 1.16667,22.5 0.5,21.8333 -0.5,21.5C -0.5,20.5 -0.5,19.5 -0.5,18.5C 1.62976,16.8729 3.62976,15.0396 5.5,13C 1.33705,10.1787 -0.162946,6.34538 1,1.5C 1.71752,0.549434 2.55085,0.382767 3.5,1C 6,3.5 8.5,6 11,8.5C 12.5814,5.08403 14.7481,2.08403 17.5,-0.5 Z M 3.5,5.5 C 5.96348,7.46114 8.29681,9.62781 10.5,12C 7.13509,11.1421 4.80176,8.97544 3.5,5.5 Z M 14.5,6.5 C 15.2891,6.78281 15.9558,7.28281 16.5,8C 15.184,8.52811 14.5173,8.02811 14.5,6.5 Z M 6.5,16.5 C 6.51731,14.9719 7.18398,14.4719 8.5,15C 7.9558,15.7172 7.28913,16.2172 6.5,16.5 Z"/></g>
</svg>
