<?xml version="1.0" encoding="UTF-8"?>
<!DOCTYPE svg PUBLIC "-//W3C//DTD SVG 1.1//EN" "http://www.w3.org/Graphics/SVG/1.1/DTD/svg11.dtd">
<svg xmlns="http://www.w3.org/2000/svg" version="1.1" width="24px" height="24px" style="shape-rendering:geometricPrecision; text-rendering:geometricPrecision; image-rendering:optimizeQuality; fill-rule:evenodd; clip-rule:evenodd" xmlns:xlink="http://www.w3.org/1999/xlink">
<g><path style="opacity:1" fill="#e07c1f" d="M 23.5,8.5 C 23.5,8.83333 23.5,9.16667 23.5,9.5C 21.825,11.002 19.9917,12.3353 18,13.5C 17.4626,16.1872 17.9626,18.6872 19.5,21C 18.9747,21.6924 18.3081,22.1924 17.5,22.5C 15.7721,20.7745 13.7721,19.4411 11.5,18.5C 9.19088,19.6508 7.02421,20.9841 5,22.5C 4.5,22.1667 4,21.8333 3.5,21.5C 7.17571,15.8292 5.84237,12.1625 -0.5,10.5C -0.5,9.83333 -0.5,9.16667 -0.5,8.5C 2.5,8.5 5.5,8.5 8.5,8.5C 10.5,-2.16667 12.5,-2.16667 14.5,8.5C 17.5,8.5 20.5,8.5 23.5,8.5 Z M 14.5,16.5 C 12.5,15.1667 10.5,15.1667 8.5,16.5C 9.03522,13.7615 8.03522,11.9282 5.5,11C 7.13414,10.5065 8.80081,10.3398 10.5,10.5C 11.1667,6.5 11.8333,6.5 12.5,10.5C 14.1992,10.3398 15.8659,10.5065 17.5,11C 14.9648,11.9282 13.9648,13.7615 14.5,16.5 Z"/></g>
</svg>
